<svg width="105" height="28" viewBox="0 0 105 28" fill="none" xmlns="http://www.w3.org/2000/svg">
<path d="M4.524 22L2.054 3.8H6.396L7.826 17.19L13.936 3.8H18.694L9.828 22H4.524ZM22.649 7.18C22.129 7.63067 21.5397 7.856 20.881 7.856C20.2224 7.856 19.7024 7.63067 19.321 7.18C18.957 6.712 18.827 6.15733 18.931 5.516C19.035 4.892 19.347 4.346 19.867 3.878C20.4044 3.41 20.9937 3.176 21.635 3.176C22.2764 3.176 22.7877 3.41 23.169 3.878C23.5677 4.32867 23.715 4.87467 23.611 5.516C23.507 6.15733 23.1864 6.712 22.649 7.18ZM16.409 22L18.697 9H22.597L20.309 22H16.409ZM32.991 8.636C34.2563 8.636 35.3223 8.98267 36.189 9.676C37.073 10.3693 37.6796 11.2533 38.009 12.328C38.3556 13.3853 38.4336 14.5293 38.243 15.76C37.9656 17.5627 37.1943 19.114 35.929 20.414C34.6636 21.714 33.0776 22.364 31.171 22.364C29.3856 22.364 28.103 21.7487 27.323 20.518L27.063 22H23.163L26.361 3.8H30.261L29.143 10.092C30.2176 9.12133 31.5003 8.636 32.991 8.636ZM33.095 17.84C33.7536 17.268 34.1696 16.488 34.343 15.5C34.5163 14.512 34.3603 13.7407 33.875 13.186C33.407 12.614 32.731 12.328 31.847 12.328C30.9456 12.328 30.1483 12.614 29.455 13.186C28.779 13.758 28.363 14.5293 28.207 15.5C28.051 16.4707 28.2156 17.242 28.701 17.814C29.1863 18.386 29.8796 18.672 30.781 18.672C31.665 18.672 32.4363 18.3947 33.095 17.84ZM47.6822 8.636C49.6062 8.636 51.1315 9.29467 52.2582 10.612C53.4022 11.9293 53.7922 13.5587 53.4282 15.5C53.3415 16.0547 53.2028 16.5747 53.0122 17.06H43.7042C43.8948 18.2733 44.7875 18.88 46.3822 18.88C47.4742 18.88 48.3842 18.542 49.1122 17.866L51.8422 20.102C50.3515 21.61 48.4448 22.364 46.1222 22.364C43.9208 22.364 42.2482 21.6793 41.1042 20.31C39.9775 18.9407 39.5788 17.2507 39.9082 15.24C40.2028 13.3507 41.0868 11.782 42.5602 10.534C44.0335 9.26867 45.7408 8.636 47.6822 8.636ZM44.2502 14.096H49.7622C49.6408 12.7613 48.8608 12.094 47.4222 12.094C45.9835 12.094 44.9262 12.7613 44.2502 14.096ZM59.1841 22.364C56.4975 22.364 54.6688 21.298 53.6981 19.166L57.2081 17.398C57.5895 18.386 58.3608 18.88 59.5221 18.88C60.4061 18.88 60.8828 18.6547 60.9521 18.204C61.0041 17.9267 60.8135 17.6927 60.3801 17.502C59.9468 17.3113 59.4181 17.1293 58.7941 16.956C58.1701 16.7827 57.5548 16.5573 56.9481 16.28C56.3588 16.0027 55.8908 15.552 55.5441 14.928C55.1975 14.2867 55.1108 13.498 55.2841 12.562C55.4401 11.678 55.8128 10.9327 56.4021 10.326C56.9915 9.71933 57.6588 9.286 58.4041 9.026C59.1495 8.766 59.9295 8.636 60.7441 8.636C61.8881 8.636 62.8935 8.88733 63.7601 9.39C64.6441 9.87533 65.2941 10.5513 65.7101 11.418L62.2001 13.16C61.8881 12.3973 61.3248 12.016 60.5101 12.016C59.7301 12.016 59.2881 12.2847 59.1841 12.822C59.1148 13.1687 59.2881 13.4373 59.7041 13.628C60.1375 13.8187 60.6661 13.992 61.2901 14.148C61.9141 14.2867 62.5295 14.486 63.1361 14.746C63.7428 14.9887 64.2195 15.4307 64.5661 16.072C64.9128 16.696 64.9995 17.502 64.8261 18.49C64.5835 19.8073 63.9508 20.7867 62.9281 21.428C61.9055 22.052 60.6575 22.364 59.1841 22.364ZM76.0782 8.636C77.4822 8.636 78.5829 9.12133 79.3802 10.092C80.1949 11.0453 80.4549 12.354 80.1602 14.018L78.7562 22H74.8562L76.1562 14.59C76.2949 13.7927 76.1822 13.2033 75.8182 12.822C75.4716 12.4233 74.9602 12.224 74.2842 12.224C73.5736 12.224 72.9582 12.4493 72.4382 12.9C71.9182 13.3333 71.5802 14.0007 71.4242 14.902L70.1762 22H66.2762L69.4742 3.8H73.3742L72.2562 10.222C73.2096 9.16467 74.4836 8.636 76.0782 8.636ZM87.5983 7.18C87.0783 7.63067 86.4889 7.856 85.8303 7.856C85.1716 7.856 84.6516 7.63067 84.2703 7.18C83.9063 6.712 83.7763 6.15733 83.8803 5.516C83.9843 4.892 84.2963 4.346 84.8163 3.878C85.3536 3.41 85.9429 3.176 86.5843 3.176C87.2256 3.176 87.7369 3.41 88.1183 3.878C88.5169 4.32867 88.6643 4.87467 88.5603 5.516C88.4563 6.15733 88.1356 6.712 87.5983 7.18ZM81.3583 22L83.6463 9H87.5463L85.2583 22H81.3583ZM97.9922 8.636C99.8468 8.636 101.251 9.35533 102.204 10.794C103.158 12.2153 103.487 13.8707 103.192 15.76C102.932 17.528 102.161 19.0707 100.878 20.388C99.6128 21.7053 98.0182 22.364 96.0942 22.364C94.3608 22.364 93.0868 21.7487 92.2722 20.518L91.1022 27.2H87.2022L90.4002 9H94.3002L94.1182 10.092C95.1755 9.12133 96.4668 8.636 97.9922 8.636ZM98.0442 17.814C98.7028 17.242 99.1188 16.4707 99.2922 15.5C99.4655 14.5293 99.3182 13.758 98.8502 13.186C98.3995 12.614 97.7235 12.328 96.8222 12.328C95.9382 12.328 95.1582 12.6053 94.4822 13.16C93.8062 13.7147 93.3728 14.4513 93.1822 15.37L93.1302 15.604C93.0088 16.54 93.1822 17.2853 93.6502 17.84C94.1182 18.3947 94.8028 18.672 95.7042 18.672C96.6055 18.672 97.3855 18.386 98.0442 17.814Z" fill="white"/>
</svg>
